<?xml version="1.0" standalone="no"?>
<!DOCTYPE svg PUBLIC "-//W3C//DTD SVG 20010904//EN"
 "http://www.w3.org/TR/2001/REC-SVG-20010904/DTD/svg10.dtd">
<svg version="1.0" xmlns="http://www.w3.org/2000/svg"
 width="256.000000pt" height="256.000000pt" viewBox="0 0 256.000000 256.000000"
 preserveAspectRatio="xMidYMid meet">
<metadata>
Created by potrace 1.14, written by Peter Selinger 2001-2017
</metadata>
<g transform="translate(0.000000,256.000000) scale(0.100000,-0.100000)"
fill="#000000" stroke="none">
<path d="M0 1280 l0 -1280 1280 0 1280 0 0 1280 0 1280 -1280 0 -1280 0 0
-1280z m1339 1080 c89 0 172 -21 218 -56 31 -23 35 -30 47 -86 4 -18 11 -25
20 -22 11 4 13 0 9 -15 -4 -17 -1 -21 18 -21 13 0 33 7 43 15 26 20 42 19 26
0 -18 -21 -7 -28 22 -15 19 9 32 8 59 -3 l34 -15 -37 -1 c-50 -1 -60 -21 -11
-22 85 -1 124 -19 180 -83 91 -103 135 -222 137 -366 1 -84 5 -112 19 -134 26
-39 13 -44 -23 -8 -25 25 -30 38 -30 77 0 28 -4 44 -10 40 -15 -9 -12 -83 4
-113 70 -133 87 -224 48 -265 -28 -29 -28 -40 -1 -32 22 7 21 -1 -4 -33 -18
-23 -27 8 -27 93 0 124 -22 79 -27 -57 -4 -105 -10 -127 -35 -128 -5 0 -8 11
-8 24 0 13 -10 36 -22 51 -18 24 -27 27 -62 23 l-41 -5 0 141 c0 122 -3 150
-24 211 -28 83 -64 158 -97 201 -17 23 -20 34 -11 43 17 17 -4 13 -48 -9 -79
-40 -225 -17 -233 38 -5 33 -17 27 -30 -17 -15 -48 -15 -91 -1 -128 l10 -28
-31 30 c-52 50 -74 101 -73 173 1 34 -2 62 -6 62 -12 0 -47 -42 -66 -79 -26
-51 -31 -140 -11 -183 18 -36 78 -78 114 -78 37 0 32 17 -8 29 -21 6 -50 25
-64 42 -21 25 -26 41 -26 87 0 50 29 142 44 142 2 0 2 -17 -1 -38 -12 -87 76
-205 173 -232 42 -12 48 -12 59 3 7 9 19 17 28 17 9 0 19 5 22 10 4 6 -6 10
-23 10 -75 0 -122 42 -122 110 l0 31 31 -23 c40 -30 160 -38 207 -14 l31 16
31 -52 c16 -29 44 -91 62 -138 32 -83 32 -88 32 -250 0 -154 -3 -175 -36 -315
-44 -182 -69 -251 -111 -304 -64 -80 -225 -192 -369 -255 l-57 -26 -27 45
c-14 25 -30 45 -36 45 -11 0 -2 -36 18 -67 16 -26 17 -33 5 -33 -5 0 -24 24
-42 52 -33 55 -52 53 -24 -2 27 -52 9 -46 -32 11 -26 36 -39 48 -41 37 -2 -9
4 -28 14 -43 l17 -26 -26 10 c-143 55 -280 168 -335 277 -55 109 -74 304 -47
484 31 208 70 335 136 445 29 48 32 50 68 47 68 -7 148 48 188 129 15 30 42
63 65 80 42 30 51 34 111 44 47 8 39 25 -12 25 -64 0 -164 -77 -195 -151 -22
-53 -86 -93 -149 -94 -43 0 -53 3 -63 23 -19 39 -27 38 -22 -3 4 -33 -1 -50
-29 -97 -44 -75 -86 -191 -108 -298 -25 -127 -22 -123 -46 -99 -10 10 -25 19
-33 19 -22 0 -65 -57 -72 -97 -6 -34 -8 -35 -20 -18 -18 24 -17 103 1 135 20
34 19 46 -2 28 -39 -34 -113 -29 -113 7 0 8 -6 15 -14 15 -8 0 -16 7 -20 15
-7 20 3 19 26 -2 25 -23 84 -22 106 1 16 18 16 18 -6 13 -22 -5 -22 -4 -9 11
10 12 16 49 19 124 4 91 9 115 31 158 33 63 17 66 -22 4 l-30 -46 -17 27 c-10
15 -20 53 -22 86 -6 87 21 136 107 193 37 25 75 48 84 52 28 10 20 27 -10 19
-24 -6 -25 -5 -12 11 16 19 92 54 118 54 10 0 40 7 69 15 38 12 70 33 131 89
45 41 97 80 116 86 19 6 33 15 30 20 -9 14 27 22 120 27 121 7 189 -8 259 -58
67 -48 74 -37 12 18 -55 48 -97 62 -205 70 -75 5 -81 7 -60 19 14 7 25 8 27 3
2 -5 38 -9 81 -9z m333 -173 c-24 -23 -24 -23 -7 30 4 12 8 14 17 5 9 -9 7
-17 -10 -35z m478 -718 c0 -18 -20 -18 -29 0 -9 16 -8 18 9 14 11 -3 20 -9 20
-14z m-1685 -59 c18 -8 17 -9 -7 -9 -16 -1 -28 4 -28 9 0 12 8 12 35 0z m202
-191 c7 -19 12 -68 12 -109 l1 -74 -27 53 c-15 29 -29 48 -31 42 -3 -10 42
-133 57 -156 13 -20 6 -78 -11 -89 -41 -25 -88 78 -88 193 0 72 11 120 35 158
21 31 37 25 52 -18z m1304 -60 c20 -37 12 -158 -14 -209 -25 -51 -76 -90 -119
-90 -26 0 -28 3 -22 23 4 12 19 75 34 139 15 68 34 126 45 138 24 26 61 26 76
-1z m-184 -695 c46 -34 66 -79 71 -158 3 -53 1 -75 -9 -83 -25 -20 -171 -42
-349 -53 -96 -6 -249 -17 -340 -25 -154 -13 -295 -19 -348 -16 -12 0 -36 14
-54 31 -31 30 -31 30 -25 109 10 126 45 182 122 197 45 8 173 -15 179 -33 14
-36 99 -153 134 -185 63 -57 139 -63 204 -17 39 28 101 125 118 182 21 77 6
74 -32 -5 -20 -41 -56 -96 -80 -122 -41 -43 -48 -46 -94 -46 -67 0 -102 24
-163 111 -28 40 -50 74 -48 76 2 2 24 -4 48 -13 24 -8 73 -16 109 -17 58 -2
75 3 165 45 l100 47 132 -2 c116 -2 135 -4 160 -23z"/>
<path d="M1151 1871 c-29 -31 -48 -86 -38 -113 2 -7 10 6 16 29 6 23 23 56 38
73 35 42 21 51 -16 11z"/>
<path d="M910 1446 c0 -35 180 -130 203 -107 14 14 -8 38 -43 46 -15 3 -54 22
-85 41 -64 38 -75 41 -75 20z"/>
<path d="M1540 1377 c-59 -15 -85 -27 -85 -37 0 -18 9 -17 134 9 100 21 107
24 96 40 -9 16 -49 13 -145 -12z"/>
<path d="M955 1267 c-20 -17 -26 -29 -21 -42 6 -17 8 -17 29 4 32 29 49 26 70
-11 14 -24 21 -28 30 -19 9 9 7 20 -8 49 -25 47 -61 53 -100 19z"/>
<path d="M1465 1210 c-22 -23 -26 -33 -17 -42 9 -9 17 -7 35 10 33 31 62 28
77 -8 13 -31 33 -36 38 -9 1 8 -7 29 -18 47 -27 44 -74 45 -115 2z"/>
<path d="M1222 1128 c-12 -15 -42 -114 -42 -139 0 -22 36 -66 46 -56 4 4 1 18
-6 32 -11 20 -10 35 4 95 18 72 17 91 -2 68z"/>
<path d="M1024 945 c-16 -13 -17 -16 -4 -25 8 -5 24 -10 35 -11 11 -1 25 -3
31 -3 6 -1 18 -7 27 -14 17 -14 24 -7 23 22 -1 14 -10 19 -36 21 -19 2 -36 8
-38 14 -5 15 -14 14 -38 -4z"/>
<path d="M1310 901 c0 -18 27 -30 68 -29 30 0 42 5 42 15 0 8 -4 12 -9 8 -5
-3 -12 -1 -15 3 -7 12 -86 14 -86 3z"/>
<path d="M1024 869 c-10 -17 67 -159 99 -183 18 -14 47 -21 90 -24 56 -3 66
-1 102 26 56 40 131 131 113 136 -7 3 -67 7 -133 10 -80 3 -142 12 -185 25
-76 24 -77 24 -86 10z m127 -50 c36 -9 103 -21 148 -24 67 -6 79 -10 70 -21
-6 -8 -29 -14 -50 -14 -42 0 -52 -16 -18 -28 19 -7 19 -9 4 -22 -9 -7 -40 -15
-69 -18 -59 -5 -108 14 -126 48 -10 19 -9 20 17 13 41 -10 62 -9 65 2 2 6 -8
11 -22 13 -57 7 -91 24 -106 54 -15 29 -15 31 2 23 11 -5 49 -16 85 -26z"/>
<path d="M1270 492 c0 -13 23 -32 39 -32 11 0 10 4 -4 20 -19 21 -35 26 -35
12z"/>
<path d="M1886 1031 c-36 -48 -44 -71 -27 -71 11 0 81 95 81 110 0 22 -20 8
-54 -39z"/>
</g>
</svg>
